<svg viewBox="0 0 50 50" xmlns="http://www.w3.org/2000/svg" xmlns:xlink="http://www.w3.org/1999/xlink" id="레이어_1" overflow="hidden"><g><path d="M8.84 29.05 21.7 42.14 48.97 10.2 39.9 1.24Z" fill="#004A7A"/><g><g><path d="M6.55 48.31 7.24 47.74C7.36 47.8 7.48 47.84 7.62 47.84 7.84 47.84 8.06 47.75 8.21 47.59 10.04 45.87 12.47 44.95 14.96 45.05 15.93 45.05 16.89 45.15 17.84 45.36 18.83 46.17 20.27 46.1 21.18 45.18L22.36 43.98 49.45 12.2C50.25 11.19 50.18 9.73 49.27 8.81L41.48 0.75C40.55-0.2 39.06-0.25 38.07 0.62L7.07 28.37 5.84 29.61C5.37 30.09 5.11 30.73 5.11 31.41 5.1 32.01 5.3 32.59 5.67 33.05 5.9 34.09 6.86 39.41 3.48 42.83 3.26 43.07 3.2 43.42 3.33 43.73L0.23 46.86C-0.1 47.19-0.09 47.73 0.23 48.06 0.29 48.12 0.37 48.18 0.45 48.22L3.79 49.91C3.92 49.97 4.04 50 4.17 50L6.55 48.31ZM39.16 1.9C39.49 1.61 39.99 1.63 40.3 1.95L48.16 9.93C48.47 10.23 48.5 10.73 48.23 11.07L21.7 42.14 8.84 29.05 39.16 1.9ZM4.07 48.15 2.25 47.23 4.46 44.98 6.02 46.56 4.07 48.15ZM5.38 43.51 5.24 43.37C8.95 38.9 7.33 32.67 7.25 32.4L7.25 32.42C7.21 32.28 7.14 32.16 7.04 32.06 6.88 31.9 6.79 31.68 6.79 31.45 6.79 31.22 6.88 31.01 7.03 30.85L7.61 30.25 20.61 43.41 20.02 44.01C19.7 44.34 19.17 44.34 18.84 44.01 18.84 44.01 18.84 44.01 18.84 44.01 18.74 43.9 18.61 43.83 18.46 43.79 17.31 43.51 16.14 43.38 14.96 43.38 12.31 43.29 9.72 44.16 7.64 45.84L5.38 43.51Z" fill="#040000"/></g></g><path d="M2.25 47.23 4.07 48.15 6.02 46.56 4.46 44.97Z" fill="#004675"/></g></svg>